<?xml version="1.0" standalone="no"?>
<!DOCTYPE svg PUBLIC "-//W3C//DTD SVG 20010904//EN"
 "http://www.w3.org/TR/2001/REC-SVG-20010904/DTD/svg10.dtd">
<svg version="1.0" xmlns="http://www.w3.org/2000/svg"
 width="1280.000000pt" height="1124.000000pt" viewBox="0 0 1280.000000 1124.000000"
 preserveAspectRatio="xMidYMid meet">
<metadata>
Created by potrace 1.15, written by Peter Selinger 2001-2017
</metadata>
<g transform="translate(0.000000,1124.000000) scale(0.100000,-0.100000)"
fill="#000000" stroke="none">
<path d="M6313 11226 c-47 -15 -113 -60 -141 -97 -11 -13 -329 -564 -707
-1224 -378 -660 -995 -1735 -1370 -2390 -375 -654 -1088 -1899 -1585 -2765
-497 -866 -1132 -1975 -1413 -2465 -1126 -1965 -1084 -1890 -1092 -1944 -18
-131 42 -248 159 -309 l51 -27 6185 0 6185 0 45 24 c136 71 199 217 153 351
-10 30 -170 318 -355 640 -184 322 -934 1629 -1665 2905 -732 1276 -1808 3155
-2393 4175 -585 1020 -1213 2116 -1396 2434 -207 363 -346 594 -369 618 -21
21 -58 47 -82 59 -55 27 -153 34 -210 15z"/>
</g>
</svg>
